<svg width="24" height="24" viewBox="0 0 24 24" fill="none" xmlns="http://www.w3.org/2000/svg">
<path d="M12.7941 16.9191L18.8813 10.5621C18.9822 10.4577 19.0624 10.3335 19.1171 10.1966C19.1718 10.0597 19.2 9.91292 19.2 9.76465C19.2 9.61639 19.1718 9.46959 19.1171 9.33272C19.0624 9.19586 18.9822 9.07164 18.8813 8.96723C18.6794 8.75804 18.4063 8.64062 18.1217 8.64062C17.8371 8.64062 17.564 8.75804 17.3622 8.96723L11.9753 14.5268L6.64226 8.96722C6.4404 8.75804 6.16734 8.64062 5.88271 8.64062C5.59808 8.64062 5.32502 8.75804 5.12316 8.96722C5.02136 9.07124 4.94038 9.19529 4.88489 9.33217C4.82941 9.46906 4.80054 9.61605 4.79995 9.76465C4.80054 9.91325 4.82941 10.0603 4.88489 10.1971C4.94038 10.334 5.02136 10.4581 5.12316 10.5621L11.2103 16.9191C11.3112 17.0331 11.4337 17.124 11.57 17.1863C11.7062 17.2485 11.8534 17.2806 12.0022 17.2806C12.151 17.2806 12.2982 17.2485 12.4345 17.1863C12.5708 17.124 12.6932 17.0331 12.7941 16.9191Z" fill="white"/>
</svg>
