<svg width="82" height="91" viewBox="0 0 82 91" fill="none" xmlns="http://www.w3.org/2000/svg">
<g clip-path="url(#clip0_1606_88)">
<path d="M76.3488 9.19395L61.4532 24.201C58.9938 26.6788 58.9938 30.6962 61.4532 33.174L76.3488 48.1811C78.8083 50.6589 82.7958 50.6589 85.2552 48.1811L100.151 33.174C102.61 30.6962 102.61 26.6788 100.151 24.201L85.2552 9.19395C82.7958 6.71612 78.8083 6.71611 76.3488 9.19395Z" fill="#6CEEC7"/>
<path opacity="0.4" d="M35.6604 3.96974L3.94023 35.9272C-1.30744 41.2141 -1.30744 49.7859 3.94024 55.0728L35.6604 87.0303C40.9081 92.3172 49.4163 92.3172 54.6639 87.0303L86.3841 55.0728C91.6318 49.7859 91.6318 41.2141 86.3841 35.9272L54.6639 3.96973C49.4163 -1.3172 40.9081 -1.31719 35.6604 3.96974Z" fill="#6CEEC7"/>
</g>
<defs>
<clipPath id="clip0_1606_88">
<rect width="114" height="91" fill="white"/>
</clipPath>
</defs>
</svg>
