<svg width="43" height="84" viewBox="0 0 43 84" fill="none" xmlns="http://www.w3.org/2000/svg">
<g clip-path="url(#clip0_1606_91)">
<path opacity="0.6" d="M7.49436 2.54847L-13.1181 23.04C-16.5257 26.4276 -16.5257 31.92 -13.1181 35.3076L7.49437 55.7992C10.902 59.1868 16.4267 59.1868 19.8343 55.7992L40.4468 35.3076C43.8544 31.92 43.8544 26.4276 40.4468 23.0401L19.8343 2.54847C16.4267 -0.839126 10.9019 -0.839124 7.49436 2.54847Z" fill="#6CEEC7"/>
<g opacity="0.9">
<path opacity="0.8" d="M2.41923 65.1152C1.91265 65.1155 1.41102 65.0161 0.943231 64.8229C0.475441 64.6296 0.0507345 64.3462 -0.306437 63.9891L-8.04095 56.2296C-8.4034 55.8769 -8.69053 55.4551 -8.88517 54.9895C-9.07981 54.5239 -9.17794 54.0241 -9.1737 53.5199C-9.16489 52.5149 -8.75788 51.554 -8.04095 50.8454L-0.235639 43.0859C0.498623 42.3889 1.47479 42 2.49001 42C3.50523 42 4.48142 42.3889 5.21568 43.0859L12.9502 50.8454C13.3098 51.2003 13.5952 51.6225 13.79 52.0875C13.9847 52.5526 14.085 53.0513 14.085 53.5551C14.085 54.0588 13.9847 54.5576 13.79 55.0227C13.5952 55.4877 13.3098 55.9099 12.9502 56.2648L5.14488 64.0243C4.41769 64.7327 3.43732 65.1251 2.41923 65.1152ZM2.41923 43.0155C2.05644 43.012 1.69673 43.0819 1.36201 43.2211C1.02729 43.3602 0.724578 43.5657 0.472315 43.8249L-7.35069 51.5844C-7.8609 52.101 -8.14675 52.796 -8.14675 53.5199C-8.14675 54.2438 -7.8609 54.9388 -7.35069 55.4554L0.472315 63.1621C0.996194 63.6611 1.6937 63.9397 2.41923 63.9397C3.14476 63.9397 3.84225 63.6611 4.36613 63.1621L12.1714 55.4026C12.4283 55.1491 12.6322 54.8476 12.7713 54.5154C12.9104 54.1832 12.982 53.8269 12.982 53.4671C12.982 53.1073 12.9104 52.751 12.7713 52.4188C12.6322 52.0867 12.4283 51.7851 12.1714 51.5316L4.34842 43.8073C4.09553 43.555 3.7948 43.3551 3.46364 43.2192C3.13249 43.0833 2.77749 43.0141 2.41923 43.0155Z" fill="#6CEEC7"/>
</g>
</g>
<defs>
<clipPath id="clip0_1606_91">
<rect width="60" height="84" fill="white" transform="translate(-17)"/>
</clipPath>
</defs>
</svg>
