<svg width="79" height="89" viewBox="0 0 79 89" fill="none" xmlns="http://www.w3.org/2000/svg">
<g clip-path="url(#clip0_1606_84)">
<path opacity="0.6" d="M42.2521 4.65442L4.66375 42.2427C-1.5513 48.4578 -1.5513 58.5344 4.66375 64.7494L42.2521 102.338C48.4671 108.553 58.5437 108.553 64.7588 102.338L102.347 64.7495C108.562 58.5344 108.562 48.4578 102.347 42.2427L64.7588 4.65441C58.5437 -1.56064 48.4671 -1.56064 42.2521 4.65442Z" fill="#6CEEC7"/>
<g opacity="0.8">
<path opacity="0.8" d="M22.9349 100.053C22.2663 100.056 21.6037 99.9265 20.9858 99.6711C20.3679 99.4158 19.8069 99.0401 19.3355 98.5659L8.37374 87.6041C7.90063 87.1317 7.52531 86.5706 7.26923 85.953C7.01315 85.3354 6.88135 84.6733 6.88135 84.0047C6.88135 83.3361 7.01315 82.6741 7.26923 82.0565C7.52531 81.4388 7.90063 80.8778 8.37374 80.4053L19.3355 69.4436C19.8079 68.9705 20.369 68.5951 20.9866 68.3391C21.6043 68.083 22.2663 67.9512 22.9349 67.9512C23.6035 67.9512 24.2655 68.083 24.8832 68.3391C25.5008 68.5951 26.0619 68.9705 26.5343 69.4436L37.4961 80.4053C37.9692 80.8778 38.3445 81.4388 38.6006 82.0565C38.8566 82.6741 38.9884 83.3361 38.9884 84.0047C38.9884 84.6733 38.8566 85.3354 38.6006 85.953C38.3445 86.5706 37.9692 87.1317 37.4961 87.6041L26.5343 98.5659C26.0629 99.0401 25.5019 99.4158 24.884 99.6711C24.2661 99.9265 23.6035 100.056 22.9349 100.053ZM22.9349 68.8189C22.383 68.8149 21.8358 68.9207 21.3251 69.1301C20.8144 69.3394 20.3505 69.6482 19.9602 70.0385L8.99842 81.0003C8.21005 81.7895 7.76723 82.8594 7.76723 83.975C7.76723 85.0905 8.21005 86.1604 8.99842 86.9497L19.9602 97.9114C20.7494 98.6998 21.8193 99.1426 22.9349 99.1426C24.0504 99.1426 25.1203 98.6998 25.9096 97.9114L36.8714 86.9497C37.6597 86.1604 38.1026 85.0905 38.1026 83.975C38.1026 82.8594 37.6597 81.7895 36.8714 81.0003L25.9096 70.0385C25.5169 69.6536 25.0518 69.3503 24.5412 69.1461C24.0307 68.9418 23.4847 68.8408 22.9349 68.8486V68.8189Z" fill="#6CEEC7"/>
</g>
</g>
<defs>
<clipPath id="clip0_1606_84">
<rect width="107" height="107" fill="white"/>
</clipPath>
</defs>
</svg>
